<svg width="463" height="502" viewBox="0 0 463 502" fill="none" xmlns="http://www.w3.org/2000/svg">
<rect width="463" height="502" rx="64" fill="black"/>
<path d="M111.416 140.667C124.429 118.2 149.816 103.333 175.816 103.253C219.803 103.16 263.789 103.307 307.776 103.253C318.929 103.141 330.087 103.318 341.244 103.297C348.236 103.283 352.162 111.61 347.598 116.906C322.12 146.471 296.945 176.329 271.283 205.76C258.843 220.444 246.377 235.127 233.365 249.302C232.951 249.753 232.432 250.106 231.859 250.322V250.322C231.375 250.505 230.87 250.601 230.352 250.602C213.027 250.637 195.715 250.546 178.403 250.52C161.269 250.653 143.869 245.253 130.669 234.147C117.229 224.093 108.203 209.013 103.829 192.96C99.8825 175.427 102.283 156.267 111.416 140.667Z" fill="url(#paint0_linear_582_60)"/>
<path d="M231.022 253.102C231.85 252.132 232.89 251.345 234.113 250.983C235.954 250.438 237.87 250.177 239.816 250.267C255.829 250.373 271.856 250.16 287.869 250.453C305.643 251.027 322.683 258.587 335.989 270.187C351.563 284.307 361.136 305.213 360.243 326.373C360.736 357 339.269 386.093 310.336 395.573C301.723 398.133 292.736 399.213 283.789 399.547C229.793 399.403 175.786 399.399 121.787 399.429C114.81 399.433 111.371 391.316 116.106 386.192C117.091 385.126 118.066 384.047 119.029 382.947C149.696 347.8 179.896 312.24 210.656 277.173C217.401 269.122 224.193 261.095 231.022 253.102Z" fill="url(#paint1_linear_582_60)"/>
<defs>
<linearGradient id="paint0_linear_582_60" x1="366.312" y1="99.7645" x2="271.514" y2="319.42" gradientUnits="userSpaceOnUse">
<stop stop-color="#00FFBF"/>
<stop offset="1" stop-color="#2E95FF"/>
</linearGradient>
<linearGradient id="paint1_linear_582_60" x1="366.961" y1="246.977" x2="270.122" y2="468.116" gradientUnits="userSpaceOnUse">
<stop stop-color="#00FFBF"/>
<stop offset="1" stop-color="#2E95FF"/>
</linearGradient>
</defs>
</svg>
